<?xml version="1.0" standalone="no"?>
<!DOCTYPE svg PUBLIC "-//W3C//DTD SVG 20010904//EN"
 "http://www.w3.org/TR/2001/REC-SVG-20010904/DTD/svg10.dtd">
<svg version="1.0" xmlns="http://www.w3.org/2000/svg"
 width="270.000000pt" height="270.000000pt" viewBox="0 0 270.000000 270.000000"
 preserveAspectRatio="xMidYMid meet">
<metadata>
Created by potrace 1.14, written by Peter Selinger 2001-2017
</metadata>
<g transform="translate(0.000000,270.000000) scale(0.100000,-0.100000)"
fill="#000000" stroke="none">
<path d="M1348 2624 c-6 -11 -82 -240 -283 -859 -296 -908 -438 -1344 -495
-1519 -33 -99 -58 -181 -57 -182 3 -3 262 166 284 185 7 6 14 11 16 11 3 0 71
44 153 98 82 54 202 133 267 176 l119 77 186 -123 c102 -68 290 -191 416 -275
127 -84 232 -151 234 -149 1 2 -2 14 -7 27 -5 13 -62 186 -126 384 -122 377
-194 600 -276 850 -54 165 -70 213 -253 775 -69 212 -136 418 -149 459 -13 41
-26 70 -29 65z"/>
<path d="M795 1768 c-77 -27 -183 -65 -235 -83 -52 -19 -153 -55 -225 -80 -71
-26 -170 -60 -220 -77 -50 -17 -94 -34 -98 -38 -5 -4 38 -24 95 -43 56 -19
220 -76 363 -125 l261 -90 89 256 c82 234 115 334 111 331 0 0 -64 -23 -141
-51z"/>
<path d="M1771 1792 c6 -15 12 -34 14 -42 4 -18 83 -246 95 -275 4 -11 23 -63
40 -115 49 -143 30 -134 172 -84 68 23 230 79 361 125 131 45 234 85 230 89
-4 4 -89 35 -188 70 -169 59 -239 83 -592 208 l-142 51 10 -27z"/>
</g>
</svg>
